<svg width="256" height="256" viewBox="0 0 256 256" fill="none" xmlns="http://www.w3.org/2000/svg">
<path d="M143.326 51.6679C139.479 51.6679 135.898 52.8079 132.876 54.7703H132.885L132.83 108.005C134.717 108.65 136.732 108.996 138.829 108.996C145.423 108.996 151.23 105.566 154.637 100.361C155.397 98.9411 156.871 97.9693 158.566 97.9693L158.575 97.9786L158.584 97.9693H158.593V97.9599C161.075 97.9599 163.081 100.016 163.081 102.539C163.081 103.576 162.769 104.52 162.202 105.286L162.192 105.295C160.828 107.407 159.207 109.313 157.366 110.986C161.368 114.434 164.418 119.003 166.021 124.236C166.158 124.675 166.231 125.124 166.231 125.601C166.231 128.133 164.216 130.179 161.744 130.179C159.738 130.179 158.044 128.843 157.467 127.002V126.993C156.065 122.424 153.052 118.583 149.105 116.172L149.096 116.163C145.918 117.443 142.456 118.153 138.829 118.153C136.768 118.153 134.763 117.92 132.83 117.499L132.812 143.887C133.096 143.878 133.38 143.878 133.664 143.878H133.902C139.443 143.878 144.892 145.55 149.462 148.653L149.48 148.662C150.158 149.129 150.717 149.793 151.074 150.615C152.072 152.932 151.037 155.633 148.766 156.651C148.18 156.913 147.566 157.034 146.971 157.034C146.046 157.034 145.139 156.745 144.388 156.212L144.37 156.203C141.293 154.138 137.675 153.016 133.948 153.016C133.572 153.016 133.187 153.035 132.803 153.063L132.885 199.421H132.903C137.116 202.906 142.483 204.999 148.326 204.999C158.639 204.999 167.468 198.495 171.076 189.282H171.369C186.938 189.282 199.551 176.415 199.551 160.538C199.551 156.296 198.644 152.278 197.023 148.661V148.652C202.005 142.485 205 134.58 205 125.973C205 115.573 200.631 106.21 193.68 99.6883C193.671 99.2865 193.671 99.081 193.671 99.081C193.671 83.205 181.051 70.3273 165.489 70.3273C164.592 70.3273 163.694 70.3741 162.815 70.4581C162.256 59.9832 153.748 51.6666 143.344 51.6666L143.326 51.6679ZM113.313 51.6679C102.909 51.6679 94.4007 59.9845 93.8511 70.4594C92.9627 70.3753 92.0744 70.3286 91.1677 70.3286V70.338H91.1586L91.1494 70.3473C75.5984 70.338 62.9864 83.2051 62.9864 99.0818V99.6892C56.0259 106.212 51.6666 115.574 51.6666 125.974C51.6666 134.58 54.6522 142.485 59.6344 148.653V148.662C58.0225 152.278 57.1067 156.297 57.1067 160.539C57.1067 176.415 69.7271 189.283 85.2885 189.283H85.5907C89.1901 198.496 98.0188 205 108.331 205C114.183 205 119.55 202.907 123.754 199.421H123.772L123.855 153.064C123.47 153.036 123.095 153.017 122.71 153.017C118.983 153.017 115.365 154.139 112.288 156.204L112.269 156.213C111.518 156.746 110.612 157.035 109.696 157.035C109.091 157.035 108.478 156.914 107.891 156.652C105.62 155.634 104.594 152.933 105.583 150.616H105.593C105.941 149.794 106.499 149.13 107.186 148.663L107.195 148.653C111.756 145.56 117.187 143.879 122.728 143.879H122.746L122.801 143.869C123.149 143.869 123.497 143.879 123.845 143.897L123.827 117.5C121.895 117.92 119.889 118.154 117.828 118.154C114.202 118.154 110.74 117.444 107.562 116.164L107.553 116.173C103.605 118.584 100.592 122.424 99.1909 126.994V127.003C98.6139 128.844 96.9196 130.18 94.9139 130.18C92.4411 130.18 90.4353 128.134 90.4353 125.601C90.4353 125.125 90.5086 124.676 90.6368 124.237C92.2487 119.004 95.2894 114.435 99.2915 110.987C97.4507 109.314 95.8295 107.408 94.465 105.296L94.4558 105.287C93.8972 104.52 93.5766 103.577 93.5766 102.539C93.5766 100.016 95.5823 97.9606 98.0644 97.9606V97.9699H98.0827C99.777 97.9699 101.261 98.9417 102.021 100.362C105.428 105.567 111.234 108.996 117.828 108.996C119.926 108.996 121.941 108.651 123.827 108.015L123.772 54.7707C120.75 52.799 117.169 51.6683 113.332 51.6683L113.313 51.6679Z" fill="#CCE6FF"/>
</svg>
